<svg width="200" height="200" xmlns="http://www.w3.org/2000/svg" xmlns:svg="http://www.w3.org/2000/svg">
 <defs>
	<filter id="purple-glow" x="-5000%" y="-5000%" width="10000%" height="10000%">
	<feComposite in="flood" result="mask" in2="SourceGraphic" operator="in"></feComposite>
	<feMorphology in="mask" result="dilated" operator="dilate" radius="2"></feMorphology>
	<feGaussianBlur in="dilated" result="blurred" stdDeviation="5"></feGaussianBlur>
	<feMerge>
	    <feMergeNode in="blurred"></feMergeNode>
	    <feMergeNode in="SourceGraphic"></feMergeNode>
	</feMerge>
	</filter>
 </defs>
 <style type="text/css">.st0{fill:#342926;}
				.st1{fill:#8A191D;}
				.st2{fill:#F5F5F7;}
				.st3{opacity:0.36;}
				.st4{fill:#565057;}
				.st5{fill:#4F4649;}
				.st6{fill:#F6E8D3;}
				.st7{fill:#DFD4CB;}
				.st8{fill:#4D434E;}
				.st9{fill:#423939;}
				.st10{opacity:0.36;fill:#FAF6F7;}
				.st11{fill:#C0251B;}
				.st12{fill:#3E2828;}
				.st13{fill:#6C191C;}
				.st14{fill:#A41D1B;}
				.st15{fill:#B59A83;}
				.st16{fill:#111014;}
				.st17{fill:#791A1D;}</style>
 <g>
  <title>Layer 1</title>
  <path fill="#8A191D" filter="url(#purple-glow)" id="svg_1" d="m99.99999,116.3453c-0.44243,0 -0.88486,-0.22121 -1.15523,-0.56532l0,0l-8.60279,-12.09306l-0.31953,-0.44243c-1.52392,-2.13841 -2.33504,-4.62093 -2.33504,-7.22635c0,-6.80849 5.57953,-12.36344 12.4126,-12.36344c6.83307,0 12.4126,5.55495 12.4126,12.36344c0,2.60542 -0.81112,5.08794 -2.33504,7.22635l-0.41785,0.56532l-8.4799,11.9456l0,0c-0.29496,0.36869 -0.73738,0.5899 -1.17981,0.5899l0,0l0,0l-0.00001,-0.00001zm-0.44243,-1.10607c0.09832,0.14748 0.27037,0.22121 0.44243,0.22121c0.17205,0 0.34411,-0.07374 0.44243,-0.22121l8.4799,-11.9456l0.41785,-0.5899c1.42561,-1.96635 2.18756,-4.27682 2.18756,-6.6856c0,-6.34148 -5.16168,-11.47859 -11.52774,-11.47859c-6.34148,0 -11.52774,5.16168 -11.52774,11.47859c0,2.40879 0.76196,4.71925 2.16299,6.6856l0.31953,0.44243l8.60279,12.09306l0,0.00001zm0.44243,-14.7968c-2.43336,0 -4.42429,-1.99093 -4.42429,-4.42429c0,-2.43336 1.99093,-4.42429 4.42429,-4.42429c2.43336,0 4.42429,1.99093 4.42429,4.42429c0,2.43336 -1.99093,4.42429 -4.42429,4.42429zm0,-7.93915c-1.96635,0 -3.53944,1.57308 -3.53944,3.53944c0,1.94177 1.59767,3.53944 3.53944,3.53944c1.96635,0 3.53944,-1.57308 3.53944,-3.53944c0,-1.96635 -1.59767,-3.53944 -3.53944,-3.53944z" stroke="null"/>
 </g>
</svg>