<?xml version="1.0" encoding="utf-8"?>
<!-- Generator: Adobe Illustrator 21.0.1, SVG Export Plug-In . SVG Version: 6.00 Build 0)  -->
<svg version="1.1" id="Camada_1" xmlns="http://www.w3.org/2000/svg" xmlns:xlink="http://www.w3.org/1999/xlink" x="0px" y="0px"
	 viewBox="0 0 261.6 199.9" style="enable-background:new 0 0 261.6 199.9;" xml:space="preserve">
<style type="text/css">
	.st0{fill:#342926;}
	.st1{fill:#8A191D;}
	.st2{fill:#F5F5F7;}
	.st3{opacity:0.36;}
	.st4{fill:#565057;}
	.st5{fill:#4F4649;}
	.st6{fill:#F6E8D3;}
	.st7{fill:#DFD4CB;}
	.st8{fill:#4D434E;}
	.st9{fill:#423939;}
	.st10{opacity:0.36;fill:#FAF6F7;}
	.st11{fill:#C0251B;}
	.st12{fill:#3E2828;}
	.st13{fill:#6C191C;}
	.st14{fill:#A41D1B;}
	.st15{fill:#B59A83;}
	.st16{fill:#111014;}
	.st17{fill:#791A1D;}
</style>
<g>
	<path class="st2" d="M87,122.3c2.7,2.9,4.9,6.5,5.7,10.8c3.5,18-21.4,33.2,0,37.3c13.5,2.6,21.1,12.5,23.3,22.7
		c3.4-1.3,6.6-2.7,9.8-4.3c-6.2-19.3-9-47.9-11-72.1C105.3,119.4,95.9,121.5,87,122.3z"/>
	<path class="st3" d="M82.7,118.4c0.1-0.3,0.1-0.6,0.2-0.9c-0.3,0.1-0.7,0.2-1,0.3C82.1,118,82.4,118.2,82.7,118.4z"/>
	<path class="st3" d="M121.6,89.6c-1.2,1.8-2.4,3.6-3.4,5.2c-7.2,11.4-21.3,18.4-35.4,22.7c0,0.3-0.1,0.6-0.2,0.9
		c1.5,1.1,3,2.4,4.3,3.8c8.9-0.8,18.4-2.9,27.7-5.6c-0.2-2.8-0.4-5.5-0.6-8.1c-1.5-20,18.4-19.3,37.1-15c2.2-4.2,5.5-8.6,9.4-12.9
		C149.9,90.9,134.1,91.4,121.6,89.6z"/>
	<path class="st3" d="M162.8,78.1C162.8,78.1,162.8,78.1,162.8,78.1c11.4-11.9,26.9-22.9,37.2-28c19.2-9.6,74.2-46.7,59.1-45.6
		c-0.4,0-0.9,0.1-1.4,0.1c-13.2,7.1-32.5,16.9-56.3,27.6C155.3,53,182.1,54.9,162.8,78.1z"/>
	<path class="st12" d="M162.8,78.1C162.8,78.1,162.8,78.1,162.8,78.1c11.4-11.9,26.9-22.9,37.2-28c19.2-9.6,74.2-46.7,59.1-45.6
		c-0.4,0-0.9,0.1-1.4,0.1c-13.2,7.1-32.5,16.9-56.3,27.6C155.3,53,182.1,54.9,162.8,78.1z"/>
	<path class="st3" d="M66.2,95.2c1.3,1,2.6,2.1,3.9,3c9.9,7.7,13.3,14.2,12.7,19.3c14.1-4.3,28.1-11.3,35.4-22.7
		c1-1.6,2.2-3.4,3.4-5.2c-11-1.6-19.3-5-19.3-5S87.2,89.2,66.2,95.2z"/>
	<path class="st3" d="M66.2,95.2c1.3,1,2.6,2.1,3.9,3c9.9,7.7,13.3,14.2,12.7,19.3c14.1-4.3,28.1-11.3,35.4-22.7
		c1-1.6,2.2-3.4,3.4-5.2c-11-1.6-19.3-5-19.3-5S87.2,89.2,66.2,95.2z"/>
	<path class="st12" d="M66.2,95.2c1.3,1,2.6,2.1,3.9,3c9.9,7.7,13.3,14.2,12.7,19.3c14.1-4.3,28.1-11.3,35.4-22.7
		c1-1.6,2.2-3.4,3.4-5.2c-11-1.6-19.3-5-19.3-5S87.2,89.2,66.2,95.2z"/>
	<path class="st3" d="M162.8,78.1c-0.8,0.8-1.5,1.6-2.2,2.4C161.3,79.8,162.1,79,162.8,78.1z"/>
	<path class="st3" d="M162.8,78.1c-0.8,0.8-1.5,1.6-2.2,2.4C161.3,79.8,162.1,79,162.8,78.1z"/>
	<path class="st3" d="M121.6,89.6c12.5,1.8,28.3,1.4,38.9-9c0.7-0.8,1.5-1.6,2.2-2.4c0,0,0,0,0,0c19.3-23.2-7.5-25.1,38.5-45.8
		c23.8-10.7,43.1-20.6,56.3-27.6c-9.3,1-31.3,5.5-50.6,8.5C164.9,35.6,136.3,68,121.6,89.6z"/>
	<path class="st3" d="M121.6,89.6c12.5,1.8,28.3,1.4,38.9-9c0.7-0.8,1.5-1.6,2.2-2.4c0,0,0,0,0,0c19.3-23.2-7.5-25.1,38.5-45.8
		c23.8-10.7,43.1-20.6,56.3-27.6c-9.3,1-31.3,5.5-50.6,8.5C164.9,35.6,136.3,68,121.6,89.6z"/>
	<path class="st6" d="M121.6,89.6c12.5,1.8,28.3,1.4,38.9-9c0.7-0.8,1.5-1.6,2.2-2.4c0,0,0,0,0,0c19.3-23.2-7.5-25.1,38.5-45.8
		c23.8-10.7,43.1-20.6,56.3-27.6c-9.3,1-31.3,5.5-50.6,8.5C164.9,35.6,136.3,68,121.6,89.6z"/>
	<path class="st3" d="M185.5,20.4c-13.3,13.2-31.7,27.4-54.7,40.7c-24.8,14.3-52.7,20-72.8,22.1c-1,1.1-2,2.1-3,3.1
		c3.8,3.1,7.6,6,11.1,8.8c21-5.9,36.1-10.6,36.1-10.6s8.4,3.4,19.3,5c14.7-21.5,43.3-54,85.5-76.4c-6,0.9-11.7,1.7-16.8,2.2
		c-0.3,0.3-0.5,0.6-0.8,0.9C188.7,17.9,187.4,19.2,185.5,20.4z"/>
	<path class="st3" d="M185.5,20.4c-13.3,13.2-31.7,27.4-54.7,40.7c-24.8,14.3-52.7,20-72.8,22.1c-1,1.1-2,2.1-3,3.1
		c3.8,3.1,7.6,6,11.1,8.8c21-5.9,36.1-10.6,36.1-10.6s8.4,3.4,19.3,5c14.7-21.5,43.3-54,85.5-76.4c-6,0.9-11.7,1.7-16.8,2.2
		c-0.3,0.3-0.5,0.6-0.8,0.9C188.7,17.9,187.4,19.2,185.5,20.4z"/>
	<path class="st3" d="M185.5,20.4c-13.3,13.2-31.7,27.4-54.7,40.7c-24.8,14.3-52.7,20-72.8,22.1c-1,1.1-2,2.1-3,3.1
		c3.8,3.1,7.6,6,11.1,8.8c21-5.9,36.1-10.6,36.1-10.6s8.4,3.4,19.3,5c14.7-21.5,43.3-54,85.5-76.4c-6,0.9-11.7,1.7-16.8,2.2
		c-0.3,0.3-0.5,0.6-0.8,0.9C188.7,17.9,187.4,19.2,185.5,20.4z"/>
	<path class="st3" d="M51.9,83.8c1.1,0.9,2.1,1.7,3.2,2.5c1-1,2-2.1,3-3.1C55.9,83.5,53.8,83.7,51.9,83.8z"/>
	<path class="st3" d="M51.9,83.8c1.1,0.9,2.1,1.7,3.2,2.5c1-1,2-2.1,3-3.1C55.9,83.5,53.8,83.7,51.9,83.8z"/>
	<path class="st3" d="M51.9,83.8c1.1,0.9,2.1,1.7,3.2,2.5c1-1,2-2.1,3-3.1C55.9,83.5,53.8,83.7,51.9,83.8z"/>
	<path class="st0" d="M190.3,15.4c-0.3,0.3-0.5,0.6-0.8,0.9c-1.3,1.4-2.6,2.7-4,4.1c-13.3,13.2-31.7,27.4-54.7,40.7
		c-24.8,14.3-52.7,20-72.8,22.1c-1,1.1-2,2.1-3,3.1c3.8,3.1,7.6,6,11.1,8.8c21-5.9,36.1-10.6,36.1-10.6s8.4,3.4,19.3,5
		c14.7-21.5,43.3-54,85.5-76.4C201.1,14.1,195.3,14.9,190.3,15.4z"/>
	<path class="st3" d="M147.7,30.9c-15.8-4.1-21.3,9.6-33.7,19.2c-5,3.9-17.4,6.5-30.4,8.3c-9.2,8.1-18,16.8-25.6,24.8
		c20.1-2.2,48-7.8,72.8-22.1c23-13.3,41.4-27.5,54.7-40.7c-2,1.2-4.6,2.1-7.6,2.8C167.8,29.5,155.8,33,147.7,30.9z"/>
	<path class="st3" d="M147.7,30.9c-15.8-4.1-21.3,9.6-33.7,19.2c-5,3.9-17.4,6.5-30.4,8.3c-9.2,8.1-18,16.8-25.6,24.8
		c20.1-2.2,48-7.8,72.8-22.1c23-13.3,41.4-27.5,54.7-40.7c-2,1.2-4.6,2.1-7.6,2.8C167.8,29.5,155.8,33,147.7,30.9z"/>
	<path class="st3" d="M147.7,30.9c-15.8-4.1-21.3,9.6-33.7,19.2c-5,3.9-17.4,6.5-30.4,8.3c-9.2,8.1-18,16.8-25.6,24.8
		c20.1-2.2,48-7.8,72.8-22.1c23-13.3,41.4-27.5,54.7-40.7c-2,1.2-4.6,2.1-7.6,2.8C167.8,29.5,155.8,33,147.7,30.9z"/>
	<path class="st3" d="M147.7,30.9c-15.8-4.1-21.3,9.6-33.7,19.2c-5,3.9-17.4,6.5-30.4,8.3c-9.2,8.1-18,16.8-25.6,24.8
		c20.1-2.2,48-7.8,72.8-22.1c23-13.3,41.4-27.5,54.7-40.7c-2,1.2-4.6,2.1-7.6,2.8C167.8,29.5,155.8,33,147.7,30.9z"/>
	<path class="st8" d="M147.7,30.9c-15.8-4.1-21.3,9.6-33.7,19.2c-5,3.9-17.4,6.5-30.4,8.3c-9.2,8.1-18,16.8-25.6,24.8
		c20.1-2.2,48-7.8,72.8-22.1c23-13.3,41.4-27.5,54.7-40.7c-2,1.2-4.6,2.1-7.6,2.8C167.8,29.5,155.8,33,147.7,30.9z"/>
	<path class="st3" d="M177.9,23.2c3-0.7,5.6-1.6,7.6-2.8c1.4-1.4,2.7-2.8,4-4.1c0.1-0.3,0.2-0.5,0.3-0.8c-0.7,0.1-1.5,0.1-2.2,0.2
		C184.8,18.4,181.5,20.9,177.9,23.2z"/>
	<path class="st3" d="M177.9,23.2c3-0.7,5.6-1.6,7.6-2.8c1.4-1.4,2.7-2.8,4-4.1c0.1-0.3,0.2-0.5,0.3-0.8c-0.7,0.1-1.5,0.1-2.2,0.2
		C184.8,18.4,181.5,20.9,177.9,23.2z"/>
	<path class="st3" d="M177.9,23.2c3-0.7,5.6-1.6,7.6-2.8c1.4-1.4,2.7-2.8,4-4.1c0.1-0.3,0.2-0.5,0.3-0.8c-0.7,0.1-1.5,0.1-2.2,0.2
		C184.8,18.4,181.5,20.9,177.9,23.2z"/>
	<path class="st3" d="M177.9,23.2c3-0.7,5.6-1.6,7.6-2.8c1.4-1.4,2.7-2.8,4-4.1c0.1-0.3,0.2-0.5,0.3-0.8c-0.7,0.1-1.5,0.1-2.2,0.2
		C184.8,18.4,181.5,20.9,177.9,23.2z"/>
	<path class="st3" d="M177.9,23.2c3-0.7,5.6-1.6,7.6-2.8c1.4-1.4,2.7-2.8,4-4.1c0.1-0.3,0.2-0.5,0.3-0.8c-0.7,0.1-1.5,0.1-2.2,0.2
		C184.8,18.4,181.5,20.9,177.9,23.2z"/>
	<path class="st3" d="M83.7,58.4c-5.6,0.8-11.4,1.4-16.7,1.9c-7.3,6.5-14.1,13.3-20,19.5c1.7,1.3,3.3,2.7,5,4c1.9-0.2,4-0.3,6.1-0.6
		C65.7,75.3,74.5,66.6,83.7,58.4z"/>
	<path class="st3" d="M83.7,58.4c-5.6,0.8-11.4,1.4-16.7,1.9c-7.3,6.5-14.1,13.3-20,19.5c1.7,1.3,3.3,2.7,5,4c1.9-0.2,4-0.3,6.1-0.6
		C65.7,75.3,74.5,66.6,83.7,58.4z"/>
	<path class="st3" d="M83.7,58.4c-5.6,0.8-11.4,1.4-16.7,1.9c-7.3,6.5-14.1,13.3-20,19.5c1.7,1.3,3.3,2.7,5,4c1.9-0.2,4-0.3,6.1-0.6
		C65.7,75.3,74.5,66.6,83.7,58.4z"/>
	<path class="st3" d="M83.7,58.4c-5.6,0.8-11.4,1.4-16.7,1.9c-7.3,6.5-14.1,13.3-20,19.5c1.7,1.3,3.3,2.7,5,4c1.9-0.2,4-0.3,6.1-0.6
		C65.7,75.3,74.5,66.6,83.7,58.4z"/>
	<path class="st3" d="M33.1,68.6c4.5,3.7,9.2,7.5,13.8,11.2c6-6.2,12.8-13,20-19.5c-12.8,1.1-23,1.5-23,1.5S40.1,65.9,33.1,68.6z"/>
	<path class="st3" d="M33.1,68.6c4.5,3.7,9.2,7.5,13.8,11.2c6-6.2,12.8-13,20-19.5c-12.8,1.1-23,1.5-23,1.5S40.1,65.9,33.1,68.6z"/>
	<path class="st3" d="M33.1,68.6c4.5,3.7,9.2,7.5,13.8,11.2c6-6.2,12.8-13,20-19.5c-12.8,1.1-23,1.5-23,1.5S40.1,65.9,33.1,68.6z"/>
	<path class="st3" d="M33.1,68.6c4.5,3.7,9.2,7.5,13.8,11.2c6-6.2,12.8-13,20-19.5c-12.8,1.1-23,1.5-23,1.5S40.1,65.9,33.1,68.6z"/>
	<path class="st3" d="M33.1,68.6c4.5,3.7,9.2,7.5,13.8,11.2c6-6.2,12.8-13,20-19.5c-12.8,1.1-23,1.5-23,1.5S40.1,65.9,33.1,68.6z"/>
	<path class="st3" d="M33.1,68.6c4.5,3.7,9.2,7.5,13.8,11.2c6-6.2,12.8-13,20-19.5c-12.8,1.1-23,1.5-23,1.5S40.1,65.9,33.1,68.6z"/>
	<path class="st3" d="M147.7,30.9c8.1,2.1,20-1.4,30.2-7.7c-1.1,0.3-2.3,0.5-3.5,0.7c-4.2,4.6-17.6,4.5-37.6,3.2c0,0,0,0,0,0
		c-15,1.2-34.8,15.1-53.1,31.3c13-1.8,25.4-4.4,30.4-8.3C126.4,40.5,131.9,26.7,147.7,30.9z"/>
	<path class="st3" d="M147.7,30.9c8.1,2.1,20-1.4,30.2-7.7c-1.1,0.3-2.3,0.5-3.5,0.7c-4.2,4.6-17.6,4.5-37.6,3.2c0,0,0,0,0,0
		c-15,1.2-34.8,15.1-53.1,31.3c13-1.8,25.4-4.4,30.4-8.3C126.4,40.5,131.9,26.7,147.7,30.9z"/>
	<path class="st3" d="M147.7,30.9c8.1,2.1,20-1.4,30.2-7.7c-1.1,0.3-2.3,0.5-3.5,0.7c-4.2,4.6-17.6,4.5-37.6,3.2c0,0,0,0,0,0
		c-15,1.2-34.8,15.1-53.1,31.3c13-1.8,25.4-4.4,30.4-8.3C126.4,40.5,131.9,26.7,147.7,30.9z"/>
	<path class="st3" d="M147.7,30.9c8.1,2.1,20-1.4,30.2-7.7c-1.1,0.3-2.3,0.5-3.5,0.7c-4.2,4.6-17.6,4.5-37.6,3.2c0,0,0,0,0,0
		c-15,1.2-34.8,15.1-53.1,31.3c13-1.8,25.4-4.4,30.4-8.3C126.4,40.5,131.9,26.7,147.7,30.9z"/>
	<path class="st3" d="M147.7,30.9c8.1,2.1,20-1.4,30.2-7.7c-1.1,0.3-2.3,0.5-3.5,0.7c-4.2,4.6-17.6,4.5-37.6,3.2c0,0,0,0,0,0
		c-15,1.2-34.8,15.1-53.1,31.3c13-1.8,25.4-4.4,30.4-8.3C126.4,40.5,131.9,26.7,147.7,30.9z"/>
	<path class="st6" d="M147.7,30.9c8.1,2.1,20-1.4,30.2-7.7c-1.1,0.3-2.3,0.5-3.5,0.7c-4.2,4.6-17.6,4.5-37.6,3.2c0,0,0,0,0,0
		c-15,1.2-34.8,15.1-53.1,31.3c13-1.8,25.4-4.4,30.4-8.3C126.4,40.5,131.9,26.7,147.7,30.9z"/>
	<path class="st3" d="M174.4,23.9c-9.7,1.7-23,2.1-37.6,3.2C156.7,28.3,170.2,28.5,174.4,23.9z"/>
	<path class="st3" d="M174.4,23.9c-9.7,1.7-23,2.1-37.6,3.2C156.7,28.3,170.2,28.5,174.4,23.9z"/>
	<path class="st3" d="M174.4,23.9c-9.7,1.7-23,2.1-37.6,3.2C156.7,28.3,170.2,28.5,174.4,23.9z"/>
	<path class="st3" d="M174.4,23.9c-9.7,1.7-23,2.1-37.6,3.2C156.7,28.3,170.2,28.5,174.4,23.9z"/>
	<path class="st3" d="M174.4,23.9c-9.7,1.7-23,2.1-37.6,3.2C156.7,28.3,170.2,28.5,174.4,23.9z"/>
	<path class="st3" d="M174.4,23.9c-9.7,1.7-23,2.1-37.6,3.2C156.7,28.3,170.2,28.5,174.4,23.9z"/>
	<path class="st3" d="M174.4,23.9c1.2-0.2,2.4-0.5,3.5-0.7c3.6-2.2,6.9-4.8,9.8-7.6c-6,0.5-10.7,0.4-13.2-0.5
		C176.3,19.1,176.1,21.9,174.4,23.9z"/>
	<path class="st3" d="M174.4,23.9c1.2-0.2,2.4-0.5,3.5-0.7c3.6-2.2,6.9-4.8,9.8-7.6c-6,0.5-10.7,0.4-13.2-0.5
		C176.3,19.1,176.1,21.9,174.4,23.9z"/>
	<path class="st3" d="M174.4,23.9c1.2-0.2,2.4-0.5,3.5-0.7c3.6-2.2,6.9-4.8,9.8-7.6c-6,0.5-10.7,0.4-13.2-0.5
		C176.3,19.1,176.1,21.9,174.4,23.9z"/>
	<path class="st3" d="M174.4,23.9c1.2-0.2,2.4-0.5,3.5-0.7c3.6-2.2,6.9-4.8,9.8-7.6c-6,0.5-10.7,0.4-13.2-0.5
		C176.3,19.1,176.1,21.9,174.4,23.9z"/>
	<path class="st3" d="M174.4,23.9c1.2-0.2,2.4-0.5,3.5-0.7c3.6-2.2,6.9-4.8,9.8-7.6c-6,0.5-10.7,0.4-13.2-0.5
		C176.3,19.1,176.1,21.9,174.4,23.9z"/>
	<path class="st3" d="M174.4,23.9c1.2-0.2,2.4-0.5,3.5-0.7c3.6-2.2,6.9-4.8,9.8-7.6c-6,0.5-10.7,0.4-13.2-0.5
		C176.3,19.1,176.1,21.9,174.4,23.9z"/>
	<path class="st3" d="M136.8,27.1c-1.9-0.1-3.9-0.2-5.9-0.4C111.4,25.5,87.3,42,66.9,60.3c5.3-0.5,11.1-1.1,16.7-1.9
		C102,42.2,121.8,28.3,136.8,27.1C136.8,27.1,136.8,27.1,136.8,27.1z"/>
	<path class="st3" d="M136.8,27.1c-1.9-0.1-3.9-0.2-5.9-0.4C111.4,25.5,87.3,42,66.9,60.3c5.3-0.5,11.1-1.1,16.7-1.9
		C102,42.2,121.8,28.3,136.8,27.1C136.8,27.1,136.8,27.1,136.8,27.1z"/>
	<path class="st3" d="M136.8,27.1c-1.9-0.1-3.9-0.2-5.9-0.4C111.4,25.5,87.3,42,66.9,60.3c5.3-0.5,11.1-1.1,16.7-1.9
		C102,42.2,121.8,28.3,136.8,27.1C136.8,27.1,136.8,27.1,136.8,27.1z"/>
	<path class="st3" d="M136.8,27.1c-1.9-0.1-3.9-0.2-5.9-0.4C111.4,25.5,87.3,42,66.9,60.3c5.3-0.5,11.1-1.1,16.7-1.9
		C102,42.2,121.8,28.3,136.8,27.1C136.8,27.1,136.8,27.1,136.8,27.1z"/>
	<path class="st3" d="M136.8,27.1c-1.9-0.1-3.9-0.2-5.9-0.4C111.4,25.5,87.3,42,66.9,60.3c5.3-0.5,11.1-1.1,16.7-1.9
		C102,42.2,121.8,28.3,136.8,27.1C136.8,27.1,136.8,27.1,136.8,27.1z"/>
	<path class="st13" d="M130.8,26.7C111.4,25.5,87.3,42,66.9,60.3c-7.3,6.5-14.1,13.3-20,19.5c1.7,1.3,3.3,2.7,5,4
		c1.1,0.9,2.1,1.7,3.2,2.5c1-1,2-2.1,3-3.1c7.7-8,16.5-16.7,25.6-24.8c18.3-16.2,38.1-30.1,53.1-31.3c0,0,0,0,0,0
		C134.8,27,132.9,26.9,130.8,26.7z"/>
	<path class="st1" d="M136.8,27.1c20,1.2,33.4,1.4,37.6-3.2C164.7,25.6,151.4,26,136.8,27.1z"/>
	<path class="st14" d="M130.8,26.7c2,0.1,4,0.3,5.9,0.4c14.6-1.1,27.9-1.5,37.6-3.2c1.8-2,1.9-4.8,0.2-8.8c-0.6-0.2-1-0.4-1.4-0.7
		C165.4,7,122.3-1.4,82.9,9.6C43.5,20.6,0,41.2,0,41.2s15.1,12.6,33.1,27.4c7-2.6,10.9-6.8,10.9-6.8s10.2-0.4,23-1.5
		C87.3,42,111.4,25.5,130.8,26.7z"/>
	<path class="st1" d="M37.5,30C24.9,32.7,13.1,37.6,1,42.1c3.7,3.1,16.8,14.1,32,26.5c4.5,3.7,9.2,7.5,13.8,11.2
		c6-6.2,12.8-13,20-19.5c20.4-18.3,44.5-34.8,63.9-33.5c2,0.1,4,0.3,5.9,0.4c7.9-0.6,15.5-1,22.2-1.5C118.5,17.9,78,19.6,37.5,30z"
		/>
	<path class="st11" d="M166.2,12.7c-4.5-1.4-9.1-2.6-13.7-3.6c-5.9-1.3-11.8-2.3-17.8-3c-7.1-0.8-14.2-1.1-21.3-1
		c-7.9,0.2-15.8,1.1-23.5,2.7c-2.4,0.5-4.7,1.1-7,1.7C43.5,20.6,0,41.2,0,41.2s0.4,0.3,1,0.9c12.1-4.4,23.9-9.4,36.5-12.1
		c26.5-6.8,53.1-9.8,79.6-9c18.3-4,39.8-0.1,56.9-6.1C171.4,14.3,168.8,13.5,166.2,12.7z"/>
	<path class="st17" d="M187.7,15.6c-4.3,0.3-8.4,0.5-12.6-0.4c-0.4-0.1-0.7-0.2-1.1-0.3c-17,6-38.6,2-56.9,6.1
		c14,0.4,27.9,1.9,41.9,4.6c5.7-0.4,10.9-0.9,15.4-1.7c1.2-0.2,2.4-0.5,3.5-0.7c3-0.7,5.6-1.6,7.6-2.8c1.4-1.4,2.7-2.8,4-4.1
		c0.3-0.3,0.5-0.6,0.8-0.9c-0.2,0-0.3,0-0.5,0C189.1,15.5,188.4,15.5,187.7,15.6z"/>
	<path class="st3" d="M159.4,164.9c5.5-11-5.5-37.8-11-56.3c-0.4-1.4-0.6-2.8-0.5-4.2c-10,4.4-21.5,8.9-33.2,12.3
		c1.9,24.2,4.7,52.9,11,72.1C143.8,180,157.5,168.6,159.4,164.9z"/>
	<path class="st12" d="M159.4,164.9c5.5-11-5.5-37.8-11-56.3c-0.4-1.4-0.6-2.8-0.5-4.2c-10,4.4-21.5,8.9-33.2,12.3
		c1.9,24.2,4.7,52.9,11,72.1C143.8,180,157.5,168.6,159.4,164.9z"/>
	<path class="st3" d="M114.1,108.5c0.2,2.6,0.4,5.3,0.6,8.1c11.7-3.4,23.2-7.9,33.2-12.3c0.1-3.4,1.3-7,3.3-10.8
		C132.4,89.2,112.5,88.6,114.1,108.5z"/>
	<path class="st0" d="M121.6,89.6c-1.2,1.8-2.4,3.6-3.4,5.2c-7.2,11.4-21.3,18.4-35.4,22.7c0,0.3-0.1,0.6-0.2,0.9
		c1.5,1.1,3,2.4,4.3,3.8c8.9-0.8,18.4-2.9,27.7-5.6c11.7-3.4,23.2-7.9,33.2-12.3c0.1-3.4,1.3-7,3.3-10.8c2.2-4.2,5.5-8.6,9.4-12.9
		C149.9,90.9,134.1,91.4,121.6,89.6z"/>
	<path class="st3" d="M92.7,170.4c-21.4-4.1,3.5-19.2,0-37.3c-0.8-4.3-3-7.9-5.7-10.8c-2.2,0.2-4.3,0.3-6.4,0.3
		c-4.4,5.5-14.6,7.9-23.6,6.5c-17.9-2.7-31.6,8.2-31.6,8.2c12.8,68.8,56.4,68.9,90.5,55.6C113.8,182.8,106.2,173,92.7,170.4z"/>
	<path class="st3" d="M82.7,118.4c-0.3,1.5-1,2.9-2.1,4.2c2.1,0,4.2-0.2,6.4-0.3C85.7,120.9,84.2,119.6,82.7,118.4z"/>
	<path class="st3" d="M82.7,118.4c-0.3,1.5-1,2.9-2.1,4.2c2.1,0,4.2-0.2,6.4-0.3C85.7,120.9,84.2,119.6,82.7,118.4z"/>
	<path class="st0" d="M92.7,170.4c-21.4-4.1,3.5-19.2,0-37.3c-0.8-4.3-3-7.9-5.7-10.8c-1.3-1.4-2.8-2.7-4.3-3.8
		c-0.3,1.5-1,2.9-2.1,4.2c-4.4,5.5-14.6,7.9-23.6,6.5c-17.9-2.7-31.6,8.2-31.6,8.2c12.8,68.8,56.4,68.9,90.5,55.6
		C113.8,182.8,106.2,173,92.7,170.4z"/>
	<g>
		<circle class="st12" cx="141" cy="40.8" r="8.5"/>
		<circle class="st15" cx="141" cy="40.8" r="7.5"/>
		<ellipse class="st16" cx="142.6" cy="40.8" rx="4.4" ry="5"/>
		<ellipse class="st15" cx="140.4" cy="37.1" rx="2.2" ry="1.8"/>
		<ellipse class="st6" cx="140.8" cy="37.3" rx="0.8" ry="0.8"/>
	</g>
</g>
</svg>
