<?xml version="1.0" encoding="utf-8"?>
<!-- Generator: Adobe Illustrator 21.0.1, SVG Export Plug-In . SVG Version: 6.00 Build 0)  -->
<svg version="1.1" id="Camada_1" xmlns="http://www.w3.org/2000/svg" xmlns:xlink="http://www.w3.org/1999/xlink" x="0px" y="0px"
	 viewBox="0 0 824.4 195.6" style="enable-background:new 0 0 824.4 195.6;" xml:space="preserve">
<style type="text/css">
	.st0{fill:#342926;}
	.st1{fill:#8A191D;}
	.st2{fill:#F5F5F7;}
	.st3{opacity:0.36;}
	.st4{fill:#565057;}
	.st5{fill:#4F4649;}
	.st6{fill:#F6E8D3;}
	.st7{fill:#DFD4CB;}
	.st8{fill:#4D434E;}
	.st9{fill:#423939;}
	.st10{opacity:0.36;fill:#FAF6F7;}
	.st11{fill:#C0251B;}
	.st12{fill:#3E2828;}
	.st13{fill:#6C191C;}
	.st14{fill:#A41D1B;}
	.st15{fill:#B59A83;}
	.st16{fill:#111014;}
	.st17{fill:#791A1D;}
</style>
<path class="st6" d="M253.5,78.8c0.5,0,0.7,0.2,0.7,0.7l-4.8,70.5c0,0.4-0.3,0.6-0.7,0.6h-6.5c-0.2,0-0.4-0.1-0.6-0.3l-18.5-28.7
	l-18.5,28.7c-0.1,0.2-0.3,0.3-0.6,0.3h-6.6c-0.4,0-0.6-0.2-0.7-0.6l-4.8-70.5c0-0.5,0.2-0.7,0.7-0.7h7.3c0.4,0,0.6,0.2,0.7,0.6
	l3.8,55.3l16.7-25.8c0.1-0.2,0.3-0.3,0.6-0.3h2.9c0.2,0,0.4,0.1,0.6,0.3l16.6,25.7l3.8-55.3c0-0.4,0.3-0.6,0.7-0.6H253.5z"/>
<path class="st6" d="M294.4,78.7c9.9,0,18.4,3.5,25.4,10.5c7,7,10.5,15.5,10.5,25.4s-3.5,18.4-10.5,25.4s-15.5,10.5-25.4,10.5
	c-9.9,0-18.4-3.5-25.4-10.5c-7-7-10.5-15.5-10.5-25.4S262,96.3,269,89.3C276,82.2,284.5,78.7,294.4,78.7z M294.4,141.4
	c7.4,0,13.7-2.6,18.9-7.8c5.2-5.2,7.8-11.5,7.8-18.9c0-7.4-2.6-13.7-7.8-18.9c-5.3-5.2-11.6-7.8-18.9-7.8c-7.4,0-13.7,2.6-18.9,7.8
	c-5.2,5.3-7.8,11.6-7.8,18.9c0,7.4,2.6,13.7,7.8,18.9C280.7,138.8,287,141.4,294.4,141.4z"/>
<path class="st6" d="M370.7,78.7c9.9,0,18.4,3.5,25.4,10.5c7,7,10.5,15.5,10.5,25.4s-3.5,18.4-10.5,25.4s-15.5,10.5-25.4,10.5
	c-9.9,0-18.4-3.5-25.4-10.5c-7-7-10.5-15.5-10.5-25.4s3.5-18.4,10.5-25.4C352.3,82.2,360.7,78.7,370.7,78.7z M370.7,141.4
	c7.4,0,13.7-2.6,18.9-7.8c5.2-5.2,7.8-11.5,7.8-18.9c0-7.4-2.6-13.7-7.8-18.9c-5.3-5.2-11.6-7.8-18.9-7.8c-7.4,0-13.7,2.6-18.9,7.8
	c-5.2,5.3-7.8,11.6-7.8,18.9c0,7.4,2.6,13.7,7.8,18.9C357,138.8,363.3,141.4,370.7,141.4z"/>
<path class="st6" d="M434.4,78.6c10.1,0,18.6,3.6,25.7,10.8c7.1,7.2,10.5,15.8,10.3,25.9c-0.2,9.8-3.9,18.2-11,25
	s-15.7,10.3-25.6,10.3h-22.2c-0.4,0-0.7-0.2-0.7-0.7V79.2c0-0.4,0.2-0.7,0.7-0.7H434.4z M434.4,141.4c7.4,0,13.8-2.6,19-7.9
	c5.3-5.3,7.9-11.6,7.9-19c0-7.4-2.6-13.7-7.9-19c-5.2-5.2-11.5-7.8-19-7.8h-14.3v53.7H434.4z"/>
<path class="st1" d="M514.4,78.7c5.8,0,10.7,2.1,14.7,6.2c4,4.1,6,9.1,5.8,14.9c-0.2,5.6-2.3,10.3-6.4,14.2
	c-4.1,3.8-8.9,5.8-14.5,5.8h-17.6v30.3c0,0.4-0.2,0.7-0.7,0.7h-7.9c-0.4,0-0.7-0.2-0.7-0.7V79.3c0-0.4,0.2-0.6,0.7-0.6H514.4z
	 M514.4,110.4c3.1,0,5.8-1.1,8-3.3c2.2-2.2,3.3-4.9,3.3-8c0-3.1-1.1-5.8-3.3-8c-2.2-2.2-4.9-3.3-8-3.3h-18v22.6H514.4z"/>
<path class="st1" d="M653,143.9c0.2,0.4,0.2,0.7-0.2,0.9c-5.9,3.9-12.5,5.8-19.6,5.8c-5,0-9.8-1-14.4-3c-4.4-1.9-8.3-4.7-11.6-8.2
	c-7.1-7.5-10.4-16.4-9.8-26.8c0.5-8.9,3.9-16.6,10.2-23c6.3-6.5,13.9-10,22.8-10.7c8.2-0.6,15.6,1.3,22.4,5.7
	c0.4,0.2,0.4,0.5,0.2,0.9l-4.4,6.5c-0.2,0.4-0.5,0.4-0.9,0.2c-5-3.2-10.5-4.6-16.6-4.2c-6.8,0.5-12.6,3.3-17.4,8.4
	c-4.8,5.1-7.2,11.1-7.3,18c-0.1,7.5,2.5,13.9,7.8,19.2c5.3,5.3,11.6,8,19,8c5.3,0,10.1-1.4,14.5-4.3c0.4-0.2,0.7-0.2,0.9,0.2
	L653,143.9z"/>
<path class="st1" d="M712.2,149.5c0.2,0.2,0.3,0.4,0.2,0.7c-0.1,0.3-0.3,0.4-0.6,0.4h-11.5c-0.2,0-0.4-0.1-0.5-0.2l-29.6-27.8v27.3
	c0,0.4-0.2,0.7-0.7,0.7h-7.9c-0.4,0-0.7-0.2-0.7-0.7V79.3c0-0.4,0.2-0.7,0.7-0.7h7.9c0.4,0,0.7,0.2,0.7,0.7V106l27.2-27.1
	c0.1-0.1,0.3-0.2,0.5-0.2H709c0.3,0,0.5,0.1,0.6,0.4c0.1,0.3,0.1,0.5-0.1,0.7l-34.7,34.6L712.2,149.5z"/>
<path class="st1" d="M767.5,78.7c0.4,0,0.7,0.2,0.7,0.7v7.8c0,0.4-0.2,0.7-0.7,0.7h-38.2v22.2H757c0.4,0,0.7,0.2,0.7,0.7v7.8
	c0,0.4-0.2,0.7-0.7,0.7h-27.7v22.2h38.2c0.4,0,0.7,0.2,0.7,0.7v7.8c0,0.4-0.2,0.7-0.7,0.7h-46.7c-0.4,0-0.7-0.2-0.7-0.7V79.4
	c0-0.4,0.2-0.7,0.7-0.7H767.5z"/>
<path class="st1" d="M589.4,78.7c0.4,0,0.7,0.2,0.7,0.7v7.8c0,0.4-0.2,0.7-0.7,0.7h-38.2v22.2h27.7c0.4,0,0.7,0.2,0.7,0.7v7.8
	c0,0.4-0.2,0.7-0.7,0.7h-27.7v22.2h38.2c0.4,0,0.7,0.2,0.7,0.7v7.8c0,0.4-0.2,0.7-0.7,0.7h-46.7c-0.4,0-0.7-0.2-0.7-0.7V79.4
	c0-0.4,0.2-0.7,0.7-0.7H589.4z"/>
<path class="st1" d="M824.4,149.6c0.1,0.2,0.1,0.4-0.1,0.7c-0.1,0.2-0.3,0.3-0.6,0.3h-8.9c-0.3,0-0.5-0.1-0.6-0.4l-16.9-30.8
	l0.1-0.1h-12.4v30.4c0,0.4-0.2,0.7-0.7,0.7h-7.8c-0.4,0-0.7-0.2-0.7-0.7V79.3c0-0.4,0.2-0.7,0.7-0.7H803c5.8,0,10.6,2.1,14.7,6.2
	c4,4.1,5.9,9.1,5.8,14.8c-0.2,4.7-1.8,8.8-4.8,12.3c-3,3.5-6.7,5.8-11.2,6.8L824.4,149.6z M803,110.3c3.1,0,5.8-1.1,8-3.3
	c2.2-2.2,3.3-4.9,3.3-7.9c0-3.1-1.1-5.8-3.3-8c-2.2-2.2-4.9-3.3-8-3.3h-17.9v22.5H803z"/>
<g>
	<path class="st2" d="M85.9,118c2.7,2.9,4.9,6.5,5.7,10.8c3.5,18-21.4,33.2,0,37.3c13.5,2.6,21.1,12.5,23.3,22.7
		c3.4-1.3,6.6-2.7,9.8-4.3c-6.2-19.3-9-47.9-11-72.1C104.3,115.1,94.8,117.2,85.9,118z"/>
	<path class="st3" d="M81.6,114.2c0.1-0.3,0.1-0.6,0.2-0.9c-0.3,0.1-0.7,0.2-1,0.3C81.1,113.7,81.3,114,81.6,114.2z"/>
	<path class="st3" d="M120.6,85.3c-1.2,1.8-2.4,3.6-3.4,5.2c-7.2,11.4-21.3,18.4-35.4,22.7c0,0.3-0.1,0.6-0.2,0.9
		c1.5,1.1,3,2.4,4.3,3.8c8.9-0.8,18.4-2.9,27.7-5.6c-0.2-2.8-0.4-5.5-0.6-8.1c-1.5-20,18.4-19.3,37.1-15c2.2-4.2,5.5-8.6,9.4-12.9
		C148.8,86.6,133,87.1,120.6,85.3z"/>
	<path class="st3" d="M161.8,73.8C161.7,73.8,161.7,73.8,161.8,73.8c11.4-11.9,26.9-22.9,37.2-28c19.2-9.6,74.2-46.7,59.1-45.6
		c-0.4,0-0.9,0.1-1.4,0.1c-13.2,7.1-32.5,16.9-56.3,27.6C154.2,48.7,181,50.6,161.8,73.8z"/>
	<path class="st12" d="M161.8,73.8C161.7,73.8,161.7,73.8,161.8,73.8c11.4-11.9,26.9-22.9,37.2-28c19.2-9.6,74.2-46.7,59.1-45.6
		c-0.4,0-0.9,0.1-1.4,0.1c-13.2,7.1-32.5,16.9-56.3,27.6C154.2,48.7,181,50.6,161.8,73.8z"/>
	<path class="st3" d="M65.1,90.9c1.3,1,2.6,2.1,3.9,3c9.9,7.7,13.3,14.2,12.7,19.3c14.1-4.3,28.1-11.3,35.4-22.7
		c1-1.6,2.2-3.4,3.4-5.2c-11-1.6-19.3-5-19.3-5S86.1,84.9,65.1,90.9z"/>
	<path class="st3" d="M65.1,90.9c1.3,1,2.6,2.1,3.9,3c9.9,7.7,13.3,14.2,12.7,19.3c14.1-4.3,28.1-11.3,35.4-22.7
		c1-1.6,2.2-3.4,3.4-5.2c-11-1.6-19.3-5-19.3-5S86.1,84.9,65.1,90.9z"/>
	<path class="st12" d="M65.1,90.9c1.3,1,2.6,2.1,3.9,3c9.9,7.7,13.3,14.2,12.7,19.3c14.1-4.3,28.1-11.3,35.4-22.7
		c1-1.6,2.2-3.4,3.4-5.2c-11-1.6-19.3-5-19.3-5S86.1,84.9,65.1,90.9z"/>
	<path class="st3" d="M161.7,73.8c-0.8,0.8-1.5,1.6-2.2,2.4C160.3,75.5,161,74.7,161.7,73.8z"/>
	<path class="st3" d="M161.7,73.8c-0.8,0.8-1.5,1.6-2.2,2.4C160.3,75.5,161,74.7,161.7,73.8z"/>
	<path class="st3" d="M120.6,85.3c12.5,1.8,28.3,1.4,38.9-9c0.7-0.8,1.5-1.6,2.2-2.4c0,0,0,0,0,0c19.3-23.2-7.5-25.1,38.5-45.8
		c23.8-10.7,43.1-20.6,56.3-27.6c-9.3,1-31.3,5.5-50.6,8.5C163.9,31.3,135.3,63.8,120.6,85.3z"/>
	<path class="st3" d="M120.6,85.3c12.5,1.8,28.3,1.4,38.9-9c0.7-0.8,1.5-1.6,2.2-2.4c0,0,0,0,0,0c19.3-23.2-7.5-25.1,38.5-45.8
		c23.8-10.7,43.1-20.6,56.3-27.6c-9.3,1-31.3,5.5-50.6,8.5C163.9,31.3,135.3,63.8,120.6,85.3z"/>
	<path class="st6" d="M120.6,85.3c12.5,1.8,28.3,1.4,38.9-9c0.7-0.8,1.5-1.6,2.2-2.4c0,0,0,0,0,0c19.3-23.2-7.5-25.1,38.5-45.8
		c23.8-10.7,43.1-20.6,56.3-27.6c-9.3,1-31.3,5.5-50.6,8.5C163.9,31.3,135.3,63.8,120.6,85.3z"/>
	<path class="st3" d="M184.5,16.1c-13.3,13.2-31.7,27.4-54.7,40.7C105,71.2,77.1,76.8,57,79c-1,1.1-2,2.1-3,3.1
		c3.8,3.1,7.6,6,11.1,8.8c21-5.9,36.1-10.6,36.1-10.6s8.4,3.4,19.3,5c14.7-21.5,43.3-54,85.5-76.4c-6,0.9-11.7,1.7-16.8,2.2
		c-0.3,0.3-0.5,0.6-0.8,0.9C187.7,13.6,186.3,15,184.5,16.1z"/>
	<path class="st3" d="M184.5,16.1c-13.3,13.2-31.7,27.4-54.7,40.7C105,71.2,77.1,76.8,57,79c-1,1.1-2,2.1-3,3.1
		c3.8,3.1,7.6,6,11.1,8.8c21-5.9,36.1-10.6,36.1-10.6s8.4,3.4,19.3,5c14.7-21.5,43.3-54,85.5-76.4c-6,0.9-11.7,1.7-16.8,2.2
		c-0.3,0.3-0.5,0.6-0.8,0.9C187.7,13.6,186.3,15,184.5,16.1z"/>
	<path class="st3" d="M184.5,16.1c-13.3,13.2-31.7,27.4-54.7,40.7C105,71.2,77.1,76.8,57,79c-1,1.1-2,2.1-3,3.1
		c3.8,3.1,7.6,6,11.1,8.8c21-5.9,36.1-10.6,36.1-10.6s8.4,3.4,19.3,5c14.7-21.5,43.3-54,85.5-76.4c-6,0.9-11.7,1.7-16.8,2.2
		c-0.3,0.3-0.5,0.6-0.8,0.9C187.7,13.6,186.3,15,184.5,16.1z"/>
	<path class="st3" d="M50.9,79.5c1.1,0.9,2.1,1.7,3.2,2.5c1-1,2-2.1,3-3.1C54.8,79.2,52.8,79.4,50.9,79.5z"/>
	<path class="st3" d="M50.9,79.5c1.1,0.9,2.1,1.7,3.2,2.5c1-1,2-2.1,3-3.1C54.8,79.2,52.8,79.4,50.9,79.5z"/>
	<path class="st3" d="M50.9,79.5c1.1,0.9,2.1,1.7,3.2,2.5c1-1,2-2.1,3-3.1C54.8,79.2,52.8,79.4,50.9,79.5z"/>
	<path class="st0" d="M189.3,11.1c-0.3,0.3-0.5,0.6-0.8,0.9c-1.3,1.4-2.6,2.7-4,4.1c-13.3,13.2-31.7,27.4-54.7,40.7
		C105,71.2,77.1,76.8,57,79c-1,1.1-2,2.1-3,3.1c3.8,3.1,7.6,6,11.1,8.8c21-5.9,36.1-10.6,36.1-10.6s8.4,3.4,19.3,5
		c14.7-21.5,43.3-54,85.5-76.4C200,9.8,194.3,10.6,189.3,11.1z"/>
	<path class="st3" d="M146.7,26.6c-15.8-4.1-21.3,9.6-33.7,19.2c-5,3.9-17.4,6.5-30.4,8.3C73.4,62.3,64.6,71,57,79
		c20.1-2.2,48-7.8,72.8-22.1c23-13.3,41.4-27.5,54.7-40.7c-2,1.2-4.6,2.1-7.6,2.8C166.7,25.2,154.8,28.7,146.7,26.6z"/>
	<path class="st3" d="M146.7,26.6c-15.8-4.1-21.3,9.6-33.7,19.2c-5,3.9-17.4,6.5-30.4,8.3C73.4,62.3,64.6,71,57,79
		c20.1-2.2,48-7.8,72.8-22.1c23-13.3,41.4-27.5,54.7-40.7c-2,1.2-4.6,2.1-7.6,2.8C166.7,25.2,154.8,28.7,146.7,26.6z"/>
	<path class="st3" d="M146.7,26.6c-15.8-4.1-21.3,9.6-33.7,19.2c-5,3.9-17.4,6.5-30.4,8.3C73.4,62.3,64.6,71,57,79
		c20.1-2.2,48-7.8,72.8-22.1c23-13.3,41.4-27.5,54.7-40.7c-2,1.2-4.6,2.1-7.6,2.8C166.7,25.2,154.8,28.7,146.7,26.6z"/>
	<path class="st3" d="M146.7,26.6c-15.8-4.1-21.3,9.6-33.7,19.2c-5,3.9-17.4,6.5-30.4,8.3C73.4,62.3,64.6,71,57,79
		c20.1-2.2,48-7.8,72.8-22.1c23-13.3,41.4-27.5,54.7-40.7c-2,1.2-4.6,2.1-7.6,2.8C166.7,25.2,154.8,28.7,146.7,26.6z"/>
	<path class="st8" d="M146.7,26.6c-15.8-4.1-21.3,9.6-33.7,19.2c-5,3.9-17.4,6.5-30.4,8.3C73.4,62.3,64.6,71,57,79
		c20.1-2.2,48-7.8,72.8-22.1c23-13.3,41.4-27.5,54.7-40.7c-2,1.2-4.6,2.1-7.6,2.8C166.7,25.2,154.8,28.7,146.7,26.6z"/>
	<path class="st3" d="M176.8,18.9c3-0.7,5.6-1.6,7.6-2.8c1.4-1.4,2.7-2.8,4-4.1c0.1-0.3,0.2-0.5,0.3-0.8c-0.7,0.1-1.5,0.1-2.2,0.2
		C183.7,14.1,180.4,16.7,176.8,18.9z"/>
	<path class="st3" d="M176.8,18.9c3-0.7,5.6-1.6,7.6-2.8c1.4-1.4,2.7-2.8,4-4.1c0.1-0.3,0.2-0.5,0.3-0.8c-0.7,0.1-1.5,0.1-2.2,0.2
		C183.7,14.1,180.4,16.7,176.8,18.9z"/>
	<path class="st3" d="M176.8,18.9c3-0.7,5.6-1.6,7.6-2.8c1.4-1.4,2.7-2.8,4-4.1c0.1-0.3,0.2-0.5,0.3-0.8c-0.7,0.1-1.5,0.1-2.2,0.2
		C183.7,14.1,180.4,16.7,176.8,18.9z"/>
	<path class="st3" d="M176.8,18.9c3-0.7,5.6-1.6,7.6-2.8c1.4-1.4,2.7-2.8,4-4.1c0.1-0.3,0.2-0.5,0.3-0.8c-0.7,0.1-1.5,0.1-2.2,0.2
		C183.7,14.1,180.4,16.7,176.8,18.9z"/>
	<path class="st3" d="M176.8,18.9c3-0.7,5.6-1.6,7.6-2.8c1.4-1.4,2.7-2.8,4-4.1c0.1-0.3,0.2-0.5,0.3-0.8c-0.7,0.1-1.5,0.1-2.2,0.2
		C183.7,14.1,180.4,16.7,176.8,18.9z"/>
	<path class="st3" d="M82.6,54.1C77,54.9,71.2,55.5,65.9,56c-7.3,6.5-14.1,13.3-20,19.5c1.7,1.3,3.3,2.7,5,4c1.9-0.2,4-0.3,6.1-0.6
		C64.6,71,73.4,62.3,82.6,54.1z"/>
	<path class="st3" d="M82.6,54.1C77,54.9,71.2,55.5,65.9,56c-7.3,6.5-14.1,13.3-20,19.5c1.7,1.3,3.3,2.7,5,4c1.9-0.2,4-0.3,6.1-0.6
		C64.6,71,73.4,62.3,82.6,54.1z"/>
	<path class="st3" d="M82.6,54.1C77,54.9,71.2,55.5,65.9,56c-7.3,6.5-14.1,13.3-20,19.5c1.7,1.3,3.3,2.7,5,4c1.9-0.2,4-0.3,6.1-0.6
		C64.6,71,73.4,62.3,82.6,54.1z"/>
	<path class="st3" d="M82.6,54.1C77,54.9,71.2,55.5,65.9,56c-7.3,6.5-14.1,13.3-20,19.5c1.7,1.3,3.3,2.7,5,4c1.9-0.2,4-0.3,6.1-0.6
		C64.6,71,73.4,62.3,82.6,54.1z"/>
	<path class="st3" d="M32,64.3c4.5,3.7,9.2,7.5,13.8,11.2c6-6.2,12.8-13,20-19.5c-12.8,1.1-23,1.5-23,1.5S39.1,61.6,32,64.3z"/>
	<path class="st3" d="M32,64.3c4.5,3.7,9.2,7.5,13.8,11.2c6-6.2,12.8-13,20-19.5c-12.8,1.1-23,1.5-23,1.5S39.1,61.6,32,64.3z"/>
	<path class="st3" d="M32,64.3c4.5,3.7,9.2,7.5,13.8,11.2c6-6.2,12.8-13,20-19.5c-12.8,1.1-23,1.5-23,1.5S39.1,61.6,32,64.3z"/>
	<path class="st3" d="M32,64.3c4.5,3.7,9.2,7.5,13.8,11.2c6-6.2,12.8-13,20-19.5c-12.8,1.1-23,1.5-23,1.5S39.1,61.6,32,64.3z"/>
	<path class="st3" d="M32,64.3c4.5,3.7,9.2,7.5,13.8,11.2c6-6.2,12.8-13,20-19.5c-12.8,1.1-23,1.5-23,1.5S39.1,61.6,32,64.3z"/>
	<path class="st3" d="M32,64.3c4.5,3.7,9.2,7.5,13.8,11.2c6-6.2,12.8-13,20-19.5c-12.8,1.1-23,1.5-23,1.5S39.1,61.6,32,64.3z"/>
	<path class="st3" d="M146.7,26.6c8.1,2.1,20-1.4,30.2-7.7c-1.1,0.3-2.3,0.5-3.5,0.7c-4.2,4.6-17.6,4.5-37.6,3.2c0,0,0,0,0,0
		c-15,1.2-34.8,15.1-53.1,31.3c13-1.8,25.4-4.4,30.4-8.3C125.4,36.2,130.9,22.5,146.7,26.6z"/>
	<path class="st3" d="M146.7,26.6c8.1,2.1,20-1.4,30.2-7.7c-1.1,0.3-2.3,0.5-3.5,0.7c-4.2,4.6-17.6,4.5-37.6,3.2c0,0,0,0,0,0
		c-15,1.2-34.8,15.1-53.1,31.3c13-1.8,25.4-4.4,30.4-8.3C125.4,36.2,130.9,22.5,146.7,26.6z"/>
	<path class="st3" d="M146.7,26.6c8.1,2.1,20-1.4,30.2-7.7c-1.1,0.3-2.3,0.5-3.5,0.7c-4.2,4.6-17.6,4.5-37.6,3.2c0,0,0,0,0,0
		c-15,1.2-34.8,15.1-53.1,31.3c13-1.8,25.4-4.4,30.4-8.3C125.4,36.2,130.9,22.5,146.7,26.6z"/>
	<path class="st3" d="M146.7,26.6c8.1,2.1,20-1.4,30.2-7.7c-1.1,0.3-2.3,0.5-3.5,0.7c-4.2,4.6-17.6,4.5-37.6,3.2c0,0,0,0,0,0
		c-15,1.2-34.8,15.1-53.1,31.3c13-1.8,25.4-4.4,30.4-8.3C125.4,36.2,130.9,22.5,146.7,26.6z"/>
	<path class="st3" d="M146.7,26.6c8.1,2.1,20-1.4,30.2-7.7c-1.1,0.3-2.3,0.5-3.5,0.7c-4.2,4.6-17.6,4.5-37.6,3.2c0,0,0,0,0,0
		c-15,1.2-34.8,15.1-53.1,31.3c13-1.8,25.4-4.4,30.4-8.3C125.4,36.2,130.9,22.5,146.7,26.6z"/>
	<path class="st6" d="M146.7,26.6c8.1,2.1,20-1.4,30.2-7.7c-1.1,0.3-2.3,0.5-3.5,0.7c-4.2,4.6-17.6,4.5-37.6,3.2c0,0,0,0,0,0
		c-15,1.2-34.8,15.1-53.1,31.3c13-1.8,25.4-4.4,30.4-8.3C125.4,36.2,130.9,22.5,146.7,26.6z"/>
	<path class="st3" d="M173.3,19.6c-9.7,1.7-23,2.1-37.6,3.2C155.7,24.1,169.1,24.2,173.3,19.6z"/>
	<path class="st3" d="M173.3,19.6c-9.7,1.7-23,2.1-37.6,3.2C155.7,24.1,169.1,24.2,173.3,19.6z"/>
	<path class="st3" d="M173.3,19.6c-9.7,1.7-23,2.1-37.6,3.2C155.7,24.1,169.1,24.2,173.3,19.6z"/>
	<path class="st3" d="M173.3,19.6c-9.7,1.7-23,2.1-37.6,3.2C155.7,24.1,169.1,24.2,173.3,19.6z"/>
	<path class="st3" d="M173.3,19.6c-9.7,1.7-23,2.1-37.6,3.2C155.7,24.1,169.1,24.2,173.3,19.6z"/>
	<path class="st3" d="M173.3,19.6c-9.7,1.7-23,2.1-37.6,3.2C155.7,24.1,169.1,24.2,173.3,19.6z"/>
	<path class="st3" d="M173.3,19.6c1.2-0.2,2.4-0.5,3.5-0.7c3.6-2.2,6.9-4.8,9.8-7.6c-6,0.5-10.7,0.4-13.2-0.5
		C175.2,14.8,175.1,17.6,173.3,19.6z"/>
	<path class="st3" d="M173.3,19.6c1.2-0.2,2.4-0.5,3.5-0.7c3.6-2.2,6.9-4.8,9.8-7.6c-6,0.5-10.7,0.4-13.2-0.5
		C175.2,14.8,175.1,17.6,173.3,19.6z"/>
	<path class="st3" d="M173.3,19.6c1.2-0.2,2.4-0.5,3.5-0.7c3.6-2.2,6.9-4.8,9.8-7.6c-6,0.5-10.7,0.4-13.2-0.5
		C175.2,14.8,175.1,17.6,173.3,19.6z"/>
	<path class="st3" d="M173.3,19.6c1.2-0.2,2.4-0.5,3.5-0.7c3.6-2.2,6.9-4.8,9.8-7.6c-6,0.5-10.7,0.4-13.2-0.5
		C175.2,14.8,175.1,17.6,173.3,19.6z"/>
	<path class="st3" d="M173.3,19.6c1.2-0.2,2.4-0.5,3.5-0.7c3.6-2.2,6.9-4.8,9.8-7.6c-6,0.5-10.7,0.4-13.2-0.5
		C175.2,14.8,175.1,17.6,173.3,19.6z"/>
	<path class="st3" d="M173.3,19.6c1.2-0.2,2.4-0.5,3.5-0.7c3.6-2.2,6.9-4.8,9.8-7.6c-6,0.5-10.7,0.4-13.2-0.5
		C175.2,14.8,175.1,17.6,173.3,19.6z"/>
	<path class="st3" d="M135.7,22.8c-1.9-0.1-3.9-0.2-5.9-0.4C110.3,21.2,86.3,37.7,65.9,56c5.3-0.5,11.1-1.1,16.7-1.9
		C101,37.9,120.7,24,135.7,22.8C135.7,22.8,135.7,22.8,135.7,22.8z"/>
	<path class="st3" d="M135.7,22.8c-1.9-0.1-3.9-0.2-5.9-0.4C110.3,21.2,86.3,37.7,65.9,56c5.3-0.5,11.1-1.1,16.7-1.9
		C101,37.9,120.7,24,135.7,22.8C135.7,22.8,135.7,22.8,135.7,22.8z"/>
	<path class="st3" d="M135.7,22.8c-1.9-0.1-3.9-0.2-5.9-0.4C110.3,21.2,86.3,37.7,65.9,56c5.3-0.5,11.1-1.1,16.7-1.9
		C101,37.9,120.7,24,135.7,22.8C135.7,22.8,135.7,22.8,135.7,22.8z"/>
	<path class="st3" d="M135.7,22.8c-1.9-0.1-3.9-0.2-5.9-0.4C110.3,21.2,86.3,37.7,65.9,56c5.3-0.5,11.1-1.1,16.7-1.9
		C101,37.9,120.7,24,135.7,22.8C135.7,22.8,135.7,22.8,135.7,22.8z"/>
	<path class="st3" d="M135.7,22.8c-1.9-0.1-3.9-0.2-5.9-0.4C110.3,21.2,86.3,37.7,65.9,56c5.3-0.5,11.1-1.1,16.7-1.9
		C101,37.9,120.7,24,135.7,22.8C135.7,22.8,135.7,22.8,135.7,22.8z"/>
	<path class="st13" d="M129.8,22.5C110.3,21.2,86.3,37.7,65.9,56c-7.3,6.5-14.1,13.3-20,19.5c1.7,1.3,3.3,2.7,5,4
		c1.1,0.9,2.1,1.7,3.2,2.5c1-1,2-2.1,3-3.1c7.7-8,16.5-16.7,25.6-24.8C101,37.9,120.7,24,135.7,22.8c0,0,0,0,0,0
		C133.8,22.7,131.8,22.6,129.8,22.5z"/>
	<path class="st1" d="M135.7,22.8c20,1.2,33.4,1.4,37.6-3.2C163.6,21.3,150.3,21.7,135.7,22.8z"/>
	<path class="st14" d="M129.8,22.5c2,0.1,4,0.3,5.9,0.4c14.6-1.1,27.9-1.5,37.6-3.2c1.8-2,1.9-4.8,0.2-8.8c-0.6-0.2-1-0.4-1.4-0.7
		c-7.8-7.4-50.8-15.8-90.3-4.8C42.4,16.3-1,36.9-1,36.9S14,49.5,32,64.3c7-2.6,10.9-6.8,10.9-6.8s10.2-0.4,23-1.5
		C86.3,37.7,110.3,21.2,129.8,22.5z"/>
	<path class="st1" d="M36.5,25.7C23.9,28.4,12.1,33.4,0,37.8c3.7,3.1,16.8,14.1,32,26.5c4.5,3.7,9.2,7.5,13.8,11.2
		c6-6.2,12.8-13,20-19.5c20.4-18.3,44.5-34.8,63.9-33.5c2,0.1,4,0.3,5.9,0.4c7.9-0.6,15.5-1,22.2-1.5C117.5,13.7,77,15.4,36.5,25.7z
		"/>
	<path class="st11" d="M165.2,8.4c-4.5-1.4-9.1-2.6-13.7-3.6c-5.9-1.3-11.8-2.3-17.8-3c-7.1-0.8-14.2-1.1-21.3-1
		C104.5,1,96.6,1.9,88.9,3.6c-2.4,0.5-4.7,1.1-7,1.7C42.4,16.3-1,36.9-1,36.9s0.4,0.3,1,0.9c12.1-4.4,23.9-9.4,36.5-12.1
		c26.5-6.8,53.1-9.8,79.6-9c18.3-4,39.8-0.1,56.9-6.1C170.3,10,167.8,9.2,165.2,8.4z"/>
	<path class="st17" d="M186.6,11.3c-4.3,0.3-8.4,0.5-12.6-0.4c-0.4-0.1-0.7-0.2-1.1-0.3c-17,6-38.6,2-56.9,6.1
		c14,0.4,27.9,1.9,41.9,4.6c5.7-0.4,10.9-0.9,15.4-1.7c1.2-0.2,2.4-0.5,3.5-0.7c3-0.7,5.6-1.6,7.6-2.8c1.4-1.4,2.7-2.8,4-4.1
		c0.3-0.3,0.5-0.6,0.8-0.9c-0.2,0-0.3,0-0.5,0C188.1,11.2,187.3,11.3,186.6,11.3z"/>
	<path class="st3" d="M158.4,160.6c5.5-11-5.5-37.8-11-56.3c-0.4-1.4-0.6-2.8-0.5-4.2c-10,4.4-21.5,8.9-33.2,12.3
		c1.9,24.2,4.7,52.9,11,72.1C142.8,175.7,156.5,164.3,158.4,160.6z"/>
	<path class="st12" d="M158.4,160.6c5.5-11-5.5-37.8-11-56.3c-0.4-1.4-0.6-2.8-0.5-4.2c-10,4.4-21.5,8.9-33.2,12.3
		c1.9,24.2,4.7,52.9,11,72.1C142.8,175.7,156.5,164.3,158.4,160.6z"/>
	<path class="st3" d="M113,104.2c0.2,2.6,0.4,5.3,0.6,8.1c11.7-3.4,23.2-7.9,33.2-12.3c0.1-3.4,1.3-7,3.3-10.8
		C131.4,84.9,111.5,84.3,113,104.2z"/>
	<path class="st0" d="M120.6,85.3c-1.2,1.8-2.4,3.6-3.4,5.2c-7.2,11.4-21.3,18.4-35.4,22.7c0,0.3-0.1,0.6-0.2,0.9
		c1.5,1.1,3,2.4,4.3,3.8c8.9-0.8,18.4-2.9,27.7-5.6c11.7-3.4,23.2-7.9,33.2-12.3c0.1-3.4,1.3-7,3.3-10.8c2.2-4.2,5.5-8.6,9.4-12.9
		C148.8,86.6,133,87.1,120.6,85.3z"/>
	<path class="st3" d="M91.6,166.1c-21.4-4.1,3.5-19.2,0-37.3c-0.8-4.3-3-7.9-5.7-10.8c-2.2,0.2-4.3,0.3-6.4,0.3
		c-4.4,5.5-14.6,7.9-23.6,6.5c-17.9-2.7-31.6,8.2-31.6,8.2c12.8,68.8,56.4,68.9,90.5,55.6C112.8,178.6,105.1,168.7,91.6,166.1z"/>
	<path class="st3" d="M81.6,114.2c-0.3,1.5-1,2.9-2.1,4.2c2.1,0,4.2-0.2,6.4-0.3C84.6,116.6,83.2,115.3,81.6,114.2z"/>
	<path class="st3" d="M81.6,114.2c-0.3,1.5-1,2.9-2.1,4.2c2.1,0,4.2-0.2,6.4-0.3C84.6,116.6,83.2,115.3,81.6,114.2z"/>
	<path class="st0" d="M91.6,166.1c-21.4-4.1,3.5-19.2,0-37.3c-0.8-4.3-3-7.9-5.7-10.8c-1.3-1.4-2.8-2.7-4.3-3.8
		c-0.3,1.5-1,2.9-2.1,4.2c-4.4,5.5-14.6,7.9-23.6,6.5c-17.9-2.7-31.6,8.2-31.6,8.2c12.8,68.8,56.4,68.9,90.5,55.6
		C112.8,178.6,105.1,168.7,91.6,166.1z"/>
	<g>
		<circle class="st12" cx="140" cy="36.5" r="8.5"/>
		<circle class="st15" cx="140" cy="36.5" r="7.5"/>
		<ellipse class="st16" cx="141.6" cy="36.5" rx="4.4" ry="5"/>
		<ellipse class="st15" cx="139.4" cy="32.9" rx="2.2" ry="1.8"/>
		<ellipse class="st6" cx="139.7" cy="33" rx="0.8" ry="0.8"/>
	</g>
</g>
</svg>
