<?xml version="1.0" encoding="utf-8"?>
<!-- Generator: Adobe Illustrator 21.0.1, SVG Export Plug-In . SVG Version: 6.00 Build 0)  -->
<svg version="1.1" id="Camada_1" xmlns="http://www.w3.org/2000/svg" xmlns:xlink="http://www.w3.org/1999/xlink" x="0px" y="0px"
	 viewBox="0 0 101 133" style="enable-background:new 0 0 101 133;" xml:space="preserve">
<style type="text/css">
	.st0{fill:#342926;}
	.st1{fill:#8A191D;}
	.st2{fill:#F5F5F7;}
	.st3{opacity:0.36;}
	.st4{fill:#565057;}
	.st5{fill:#4F4649;}
	.st6{fill:#F6E8D3;}
	.st7{fill:#DFD4CB;}
	.st8{fill:#4D434E;}
	.st9{fill:#423939;}
	.st10{opacity:0.36;fill:#FAF6F7;}
	.st11{fill:#C0251B;}
	.st12{fill:#3E2828;}
	.st13{fill:#6C191C;}
	.st14{fill:#A41D1B;}
	.st15{fill:#B59A83;}
	.st16{fill:#111014;}
	.st17{fill:#791A1D;}
</style>
<path d="M50.5,133c-1.8,0-3.6-0.9-4.7-2.3l0,0l-35-49.2l-1.3-1.8C3.3,71,0,60.9,0,50.3C0,22.6,22.7,0,50.5,0
	C78.3,0,101,22.6,101,50.3c0,10.6-3.3,20.7-9.5,29.4L89.8,82l-34.5,48.6l0,0C54.1,132.1,52.3,133,50.5,133z M48.7,128.5
	c0.4,0.6,1.1,0.9,1.8,0.9c0.7,0,1.4-0.3,1.8-0.9l34.5-48.6l1.7-2.4c5.8-8,8.9-17.4,8.9-27.2c0-25.8-21-46.7-46.9-46.7
	c-25.8,0-46.9,21-46.9,46.7c0,9.8,3.1,19.2,8.8,27.2l1.3,1.8L48.7,128.5z M50.5,68.3c-9.9,0-18-8.1-18-18c0-9.9,8.1-18,18-18
	c9.9,0,18,8.1,18,18C68.5,60.2,60.4,68.3,50.5,68.3z M50.5,36c-8,0-14.4,6.4-14.4,14.4c0,7.9,6.5,14.4,14.4,14.4
	c8,0,14.4-6.4,14.4-14.4C64.9,42.4,58.4,36,50.5,36z"/>
</svg>
